<svg width="16" height="16" viewBox="0 0 16 16" fill="none" xmlns="http://www.w3.org/2000/svg">
<path fill-rule="evenodd" clip-rule="evenodd" d="M2.66406 8.00016C2.66406 7.63197 2.96254 7.3335 3.33073 7.3335H12.6641C13.0323 7.3335 13.3307 7.63197 13.3307 8.00016C13.3307 8.36835 13.0323 8.66683 12.6641 8.66683H3.33073C2.96254 8.66683 2.66406 8.36835 2.66406 8.00016Z" fill="white"/>
<path fill-rule="evenodd" clip-rule="evenodd" d="M7.5312 2.86177C7.79155 2.60142 8.21366 2.60142 8.47401 2.86177L13.1407 7.52843C13.401 7.78878 13.401 8.21089 13.1407 8.47124L8.47401 13.1379C8.21366 13.3983 7.79155 13.3983 7.5312 13.1379C7.27085 12.8776 7.27085 12.4554 7.5312 12.1951L11.7265 7.99984L7.5312 3.80458C7.27085 3.54423 7.27085 3.12212 7.5312 2.86177Z" fill="white"/>
</svg>
