<svg width="16" height="16" viewBox="0 0 16 16" fill="none" xmlns="http://www.w3.org/2000/svg">
<path fill-rule="evenodd" clip-rule="evenodd" d="M13.3359 8.00016C13.3359 7.63197 13.0375 7.3335 12.6693 7.3335H3.33594C2.96775 7.3335 2.66927 7.63197 2.66927 8.00016C2.66927 8.36835 2.96775 8.66683 3.33594 8.66683H12.6693C13.0375 8.66683 13.3359 8.36835 13.3359 8.00016Z" fill="white"/>
<path fill-rule="evenodd" clip-rule="evenodd" d="M8.4688 2.86177C8.20845 2.60142 7.78634 2.60142 7.52599 2.86177L2.85932 7.52843C2.59898 7.78878 2.59898 8.21089 2.85932 8.47124L7.52599 13.1379C7.78634 13.3983 8.20845 13.3983 8.4688 13.1379C8.72915 12.8776 8.72915 12.4554 8.4688 12.1951L4.27354 7.99984L8.4688 3.80458C8.72915 3.54423 8.72915 3.12212 8.4688 2.86177Z" fill="white"/>
</svg>
