<svg width="18" height="13" viewBox="0 0 18 13" fill="none" xmlns="http://www.w3.org/2000/svg">
<path d="M17.3479 1.76208L6.7479 12.362C6.65402 12.4567 6.52622 12.5099 6.3929 12.5099C6.25958 12.5099 6.13178 12.4567 6.0379 12.362L0.6479 6.97205C0.55324 6.87825 0.5 6.75045 0.5 6.61705C0.5 6.48375 0.55324 6.35595 0.6479 6.26205L1.3479 5.56205C1.44178 5.46745 1.56958 5.41415 1.7029 5.41415C1.83622 5.41415 1.96402 5.46745 2.0579 5.56205L6.3879 9.89205L15.9379 0.342085C16.1357 0.150295 16.4501 0.150295 16.6479 0.342085L17.3479 1.05208C17.4426 1.14596 17.4958 1.27376 17.4958 1.40708C17.4958 1.5404 17.4426 1.66819 17.3479 1.76208Z" fill="#048B94"/>
</svg>
