<svg width="24" height="24" viewBox="0 0 24 24" fill="none" xmlns="http://www.w3.org/2000/svg">
<g clip-path="url(#clip0_3036_1873)">
<path d="M1.77145 19.8712C1.87545 21.1487 2.85293 22.1262 4.13042 22.2302C5.7444 22.3612 8.31986 22.4997 12.0018 22.4997C15.6838 22.4997 18.2592 22.3612 19.8732 22.2302C21.1507 22.1262 22.1282 21.1487 22.2322 19.8712C22.3632 18.2573 22.5017 15.6818 22.5017 11.9999C22.5017 8.31791 22.3632 5.74244 22.2322 4.12846C22.1282 2.85098 21.1507 1.87349 19.8732 1.7695C18.2592 1.6385 15.6838 1.5 12.0018 1.5C8.31986 1.5 5.7444 1.6385 4.13042 1.7695C2.85293 1.87349 1.87545 2.85098 1.77145 4.12846C1.64045 5.74244 1.50195 8.31791 1.50195 11.9999C1.50195 15.6818 1.64045 18.2573 1.77145 19.8712Z" stroke="#C8C8C8" stroke-width="1.49998" stroke-linejoin="round"/>
<path d="M1.75195 6.74951H22.2517" stroke="#C8C8C8" stroke-width="1.49998" stroke-linecap="round"/>
<path d="M5.00195 4.25H6.00194M9.0019 4.25H10.0019" stroke="#C8C8C8" stroke-width="1.49998" stroke-linecap="round" stroke-linejoin="round"/>
</g>
<defs>
<clipPath id="clip0_3036_1873">
<rect width="23.9997" height="23.9997" fill="white"/>
</clipPath>
</defs>
</svg>
