<svg width="30" height="29" viewBox="0 0 30 29" fill="none" xmlns="http://www.w3.org/2000/svg">
<path d="M17.667 5.29199H12.167C10.3025 5.29199 8.77349 5.29199 7.50574 5.36624C5.24387 5.49962 3.80974 5.87087 2.77849 6.90349C1.16699 8.51362 1.16699 11.1069 1.16699 16.292C1.16699 21.4771 1.16699 24.0704 2.77849 25.6805C4.38862 27.292 6.98187 27.292 12.167 27.292H17.667C22.8521 27.292 25.4454 27.292 27.0555 25.6805C28.667 24.0704 28.667 21.4771 28.667 16.292C28.667 11.1069 28.667 8.51362 27.0555 6.90349C26.0242 5.87224 24.5901 5.50099 22.3296 5.36624C21.0605 5.29199 19.5315 5.29199 17.667 5.29199Z" stroke="#C8C8C8" stroke-width="1.46667"/>
<path d="M7.50586 5.36624C8.63748 5.33874 9.63711 4.54124 10.0221 3.47699L10.0702 3.33537L10.1046 3.22949C10.1624 3.05487 10.1926 2.96824 10.2229 2.89124C10.4171 2.40836 10.7444 1.99051 11.1667 1.68626C11.589 1.38201 12.0889 1.20386 12.6085 1.17249C12.6896 1.16699 12.7831 1.16699 12.9646 1.16699H16.8669C17.0497 1.16699 17.1419 1.16699 17.2244 1.17249C17.7439 1.20386 18.2439 1.38201 18.6662 1.68626C19.0885 1.99051 19.4157 2.40836 19.61 2.89124C19.6416 2.96824 19.6705 3.05624 19.7282 3.22949L19.764 3.33537C19.7887 3.40824 19.7997 3.44537 19.8121 3.47699C20.1971 4.54262 21.1967 5.33874 22.3284 5.36624" stroke="#C8C8C8" stroke-width="1.46667"/>
<path d="M28.2014 9.03223C24.0626 11.7217 21.9932 13.0665 19.8125 13.7444C16.6239 14.7351 13.2097 14.7351 10.0211 13.7444C7.83898 13.0665 5.76961 11.7231 1.63086 9.03223M9.41611 12.1672V14.9172M20.4161 12.1672V14.9172" stroke="#C8C8C8" stroke-width="1.46667" stroke-linecap="round"/>
</svg>
