<svg width="21" height="20" viewBox="0 0 21 20" fill="none" xmlns="http://www.w3.org/2000/svg">
<path d="M3.55288 17.1929C2.59778 16.2704 1.83596 15.167 1.31187 13.9469C0.787778 12.7269 0.511916 11.4147 0.500378 10.0869C0.488839 8.7591 0.741856 7.44231 1.24467 6.21334C1.74747 4.98438 2.49001 3.86786 3.42893 2.92893C4.36786 1.99001 5.48438 1.24747 6.71334 0.744665C7.94231 0.241856 9.2591 -0.0111606 10.5869 0.000377568C11.9147 0.0119157 13.2269 0.287778 14.4469 0.811868C15.667 1.33596 16.7704 2.09778 17.6929 3.05288C19.5145 4.9389 20.5224 7.46493 20.4996 10.0869C20.4768 12.7089 19.4251 15.217 17.5711 17.0711C15.717 18.9251 13.2089 19.9768 10.5869 19.9996C7.96493 20.0224 5.4389 19.0145 3.55288 17.1929ZM12.0229 10.1229L14.8529 7.29288L13.4429 5.88288L10.6229 8.71288L7.79288 5.88288L6.38288 7.29288L9.21288 10.1229L6.38288 12.9529L7.79288 14.3629L10.6229 11.5329L13.4529 14.3629L14.8629 12.9529L12.0329 10.1229H12.0229Z" fill="#D1D1D4"/>
</svg>
