<svg width="30" height="30" viewBox="0 0 30 30" fill="none" xmlns="http://www.w3.org/2000/svg">
<path d="M21.703 24.252L15.9317 21.0582C18.0767 19.3723 18.6592 16.059 18.6592 14.2014V10.3345C18.6592 7.77406 15.2539 4.92237 11.8334 4.92237C8.41382 4.92237 4.91816 7.77452 4.91816 10.3345V14.2014C4.91816 15.8905 5.63358 19.3077 7.80058 21.0435L1.88035 24.2519C1.88035 24.2519 0.333496 24.9406 0.333496 25.7991V28.1196C0.333496 28.9736 1.02737 29.6668 1.88035 29.6668H21.703C22.5568 29.6668 23.2507 28.9736 23.2507 28.1196V25.7991C23.2507 24.8889 21.7029 24.2519 21.7029 24.2519L21.703 24.252ZM21.4174 27.8353H2.16686V26.198C2.2984 26.1023 2.48219 25.9915 2.62702 25.9251C2.67007 25.9054 2.71315 25.8848 2.75395 25.8614L8.6746 22.6535C9.21451 22.3609 9.57246 21.8183 9.62701 21.2075C9.68155 20.5967 9.42626 19.9982 8.94777 19.6145C7.41054 18.3833 6.75192 15.6561 6.75192 14.2014V10.3346C6.75192 9.01913 9.23422 6.75398 11.8338 6.75398C14.4816 6.75398 16.8264 8.98802 16.8264 10.3346V14.2014C16.8264 15.636 16.3804 18.375 14.7988 19.6182C14.5603 19.8057 14.3722 20.0494 14.2511 20.3274C14.13 20.6054 14.0797 20.909 14.1049 21.2112C14.1304 21.5131 14.2304 21.8041 14.3959 22.058C14.5615 22.3119 14.7874 22.5209 15.0536 22.6663L20.8248 25.8601C20.8757 25.888 20.9404 25.9182 20.994 25.9416C21.1292 25.9988 21.2955 26.0945 21.4174 26.1788V27.8353ZM28.1187 19.6919L22.2617 16.4982C24.4067 14.8122 25.0753 11.499 25.0753 9.64133V5.77452C25.0753 3.21404 21.5843 0.333496 18.1638 0.333496C15.9409 0.333496 13.6681 1.54093 12.3453 3.08723C13.0998 3.13391 13.9316 3.13485 14.6503 3.36379C15.616 2.61241 16.8379 2.16551 18.1638 2.16551C20.8115 2.16551 23.242 4.42788 23.242 5.775V9.64182C23.242 11.0763 22.7104 13.8154 21.1287 15.0586C20.8903 15.2461 20.7021 15.4898 20.581 15.7678C20.4599 16.0458 20.4097 16.3494 20.4348 16.6515C20.4603 16.9535 20.5603 17.2445 20.7259 17.4984C20.8914 17.7523 21.1174 17.9613 21.3835 18.1067L27.2405 21.3004C27.2914 21.3284 27.356 21.3586 27.4096 21.3819C27.5448 21.4392 27.7112 21.5349 27.8331 21.6191V23.2478H24.1326C24.6913 23.6691 24.8604 24.2716 25.0772 25.0793H28.1191C28.973 25.0793 29.6668 24.3861 29.6668 23.5321V21.24C29.6664 20.3288 28.1186 19.6919 28.1186 19.6919L28.1187 19.6919Z" fill="#C8C8C8"/>
</svg>
