<svg width="49" height="48" viewBox="0 0 49 48" fill="none" xmlns="http://www.w3.org/2000/svg">
<path d="M2.89794 0.130496C2.6038 0.00381428 2.27841 -0.0316817 1.96387 0.0286012C1.64933 0.0888841 1.36013 0.242172 1.13367 0.46863C0.907211 0.695088 0.753923 0.984296 0.69364 1.29883C0.633357 1.61337 0.668853 1.93876 0.795536 2.2329L19.9955 47.0329C20.1233 47.3312 20.3388 47.5836 20.6134 47.7566C20.888 47.9295 21.2087 48.0149 21.533 48.0014C21.8572 47.9878 22.1697 47.876 22.4289 47.6807C22.6881 47.4855 22.8818 47.216 22.9843 46.9081L29.1315 28.4665L47.5731 22.3225C47.8821 22.2206 48.1526 22.027 48.3487 21.7674C48.5448 21.5079 48.6571 21.1947 48.6706 20.8697C48.6842 20.5447 48.5984 20.2232 48.4246 19.9482C48.2508 19.6732 47.9973 19.4578 47.6979 19.3305L2.89794 0.130496Z" fill="white"/>
</svg>
