<svg width="24" height="25" viewBox="0 0 24 25" fill="none" xmlns="http://www.w3.org/2000/svg">
  <path d="M20.3479 8.45251L9.7479 19.0525C9.65402 19.1472 9.52622 19.2004 9.3929 19.2004C9.25958 19.2004 9.13178 19.1472 9.0379 19.0525L3.6479 13.6625C3.55324 13.5687 3.5 13.4409 3.5 13.3075C3.5 13.1742 3.55324 13.0464 3.6479 12.9525L4.3479 12.2525C4.44178 12.1579 4.56958 12.1046 4.7029 12.1046C4.83622 12.1046 4.96402 12.1579 5.0579 12.2525L9.3879 16.5825L18.9379 7.03251C19.1357 6.84072 19.4501 6.84072 19.6479 7.03251L20.3479 7.74251C20.4426 7.83639 20.4958 7.96419 20.4958 8.09751C20.4958 8.23083 20.4426 8.35862 20.3479 8.45251Z" fill="white"/>
</svg>
