<svg width="8" height="16" viewBox="0 0 8 16" fill="none" xmlns="http://www.w3.org/2000/svg">
  <path d="M4.33341 15.3337C6.36008 15.3337 8.00008 13.6937 8.00008 11.667V4.00033H7.00008V11.667C7.00008 13.1403 5.80675 14.3337 4.33341 14.3337C2.86008 14.3337 1.66675 13.1403 1.66675 11.667V3.33366C1.66675 2.89163 1.84234 2.46771 2.1549 2.15515C2.46746 1.84259 2.89139 1.66699 3.33341 1.66699C3.77544 1.66699 4.19937 1.84259 4.51193 2.15515C4.82449 2.46771 5.00008 2.89163 5.00008 3.33366V10.3337C5.00008 10.7003 4.70008 11.0003 4.33341 11.0003C3.96675 11.0003 3.66675 10.7003 3.66675 10.3337V4.00033H2.66675V10.3337C2.66675 10.7757 2.84234 11.1996 3.1549 11.5122C3.46746 11.8247 3.89139 12.0003 4.33341 12.0003C4.77544 12.0003 5.19937 11.8247 5.51193 11.5122C5.82449 11.1996 6.00008 10.7757 6.00008 10.3337V3.33366C6.00008 1.86033 4.80675 0.666992 3.33341 0.666992C1.86008 0.666992 0.666748 1.86033 0.666748 3.33366V11.667C0.666748 13.6937 2.30675 15.3337 4.33341 15.3337Z" fill="white"/>
</svg>
