<svg width="20" height="21" viewBox="0 0 20 21" fill="none" xmlns="http://www.w3.org/2000/svg">
<path d="M9.07088 1.66703C9.41462 0.850572 10.5854 0.850573 10.9291 1.66703L12.9579 6.48592C13.1029 6.83012 13.4306 7.0653 13.8067 7.09509L19.0727 7.51217C19.9649 7.58283 20.3267 8.68282 19.6469 9.25809L15.6348 12.6534C15.3482 12.8959 15.223 13.2765 15.3106 13.639L16.5363 18.7157C16.744 19.5758 15.7969 20.2557 15.033 19.7948L10.5245 17.0742C10.2025 16.8799 9.7975 16.8799 9.47548 17.0742L4.96699 19.7948C4.20311 20.2557 3.25596 19.5758 3.46363 18.7157L4.68942 13.639C4.77698 13.2765 4.65182 12.8959 4.36526 12.6534L0.353062 9.25809C-0.326718 8.68282 0.0350679 7.58283 0.927291 7.51217L6.19336 7.09509C6.5695 7.0653 6.89716 6.83012 7.04207 6.48592L9.07088 1.66703Z" fill="white"/>
<g clip-path="url(#clip0_1803_697)">
<path d="M9.07088 1.66703C9.41462 0.850572 10.5854 0.850573 10.9291 1.66703L12.9579 6.48592C13.1029 6.83012 13.4306 7.0653 13.8067 7.09509L19.0727 7.51217C19.9649 7.58283 20.3267 8.68282 19.6469 9.25809L15.6348 12.6534C15.3482 12.8959 15.223 13.2765 15.3106 13.639L16.5363 18.7157C16.744 19.5758 15.7969 20.2557 15.033 19.7948L10.5245 17.0742C10.2025 16.8799 9.7975 16.8799 9.47548 17.0742L4.96699 19.7948C4.20311 20.2557 3.25596 19.5758 3.46363 18.7157L4.68942 13.639C4.77698 13.2765 4.65182 12.8959 4.36526 12.6534L0.353062 9.25809C-0.326718 8.68282 0.0350679 7.58283 0.927291 7.51217L6.19336 7.09509C6.5695 7.0653 6.89716 6.83012 7.04207 6.48592L9.07088 1.66703Z" fill="#818181"/>
</g>
<defs>
<clipPath id="clip0_1803_697">
<rect width="10" height="20" fill="white" transform="translate(10 0.242188)"/>
</clipPath>
</defs>
</svg>
