<svg width="49" height="48" viewBox="0 0 49 48" fill="none" xmlns="http://www.w3.org/2000/svg">
<path d="M24.3184 29.3008C23.2683 29.3018 22.2415 28.9907 21.3685 28.4072C20.4954 27.8236 19.8154 26.9938 19.4147 26.0232C19.014 25.0525 18.9107 23.9847 19.1179 22.9552C19.325 21.9257 19.8334 20.9809 20.5784 20.2408C20.7189 20.1016 20.8855 19.9915 21.0685 19.9166C21.2516 19.8418 21.4477 19.8038 21.6455 19.8047C21.8432 19.8056 22.0389 19.8455 22.2213 19.9221C22.4037 19.9986 22.5692 20.1103 22.7084 20.2508C22.8476 20.3914 22.9577 20.5579 23.0326 20.741C23.1074 20.9241 23.1455 21.1201 23.1445 21.3179C23.1436 21.5157 23.1037 21.7114 23.0272 21.8937C22.9506 22.0761 22.8389 22.2416 22.6984 22.3808C22.4826 22.5918 22.3113 22.8438 22.1945 23.1221C22.0777 23.4003 22.0178 23.6991 22.0184 24.0008C21.9918 24.4759 22.1145 24.9473 22.3692 25.3491C22.6239 25.7509 22.998 26.063 23.4389 26.2415C23.8799 26.4201 24.3657 26.4563 24.8282 26.345C25.2908 26.2337 25.7069 25.9805 26.0184 25.6208C26.303 25.3387 26.6876 25.1804 27.0884 25.1804C27.4892 25.1804 27.8737 25.3387 28.1584 25.6208C28.4358 25.908 28.5908 26.2916 28.5908 26.6908C28.5908 27.0901 28.4358 27.4737 28.1584 27.7608C27.6529 28.2601 27.053 28.6534 26.3936 28.9178C25.7342 29.1823 25.0287 29.3125 24.3184 29.3008Z" fill="white"/>
<path d="M44.8184 24C44.8184 29.4369 42.6585 34.6512 38.814 38.4957C34.9696 42.3402 29.7553 44.5 24.3184 44.5C18.8814 44.5 13.6672 42.3402 9.82267 38.4957C5.97817 34.6512 3.81836 29.4369 3.81836 24C3.81836 18.5631 5.97817 13.3488 9.82267 9.50431C13.6672 5.65981 18.8814 3.5 24.3184 3.5C24.7162 3.5 25.0977 3.65804 25.379 3.93934C25.6603 4.22064 25.8184 4.60218 25.8184 5V12.6C25.8132 12.9962 25.6535 13.3747 25.3733 13.6549C25.0931 13.9351 24.7146 14.0948 24.3184 14.1C22.3596 14.0865 20.4426 14.6651 18.8184 15.76C17.185 16.8425 15.9112 18.3871 15.1596 20.1967C14.408 22.0063 14.2126 23.9989 14.5984 25.92C15.2257 28.1992 16.6402 30.1824 18.5909 31.5177C20.5415 32.8531 22.9021 33.4542 25.2539 33.2145C27.6056 32.9748 29.7964 31.9097 31.4375 30.2082C33.0785 28.5067 34.0638 26.2789 34.2184 23.92C34.2159 23.7223 34.2531 23.5262 34.3276 23.3431C34.4021 23.1601 34.5125 22.9937 34.6523 22.854C34.7921 22.7142 34.9584 22.6038 35.1415 22.5293C35.3246 22.4547 35.5207 22.4176 35.7184 22.42H43.3184C43.5223 22.4197 43.7241 22.461 43.9115 22.5413C44.0989 22.6217 44.268 22.7394 44.4083 22.8872C44.5487 23.0351 44.6575 23.2101 44.728 23.4014C44.7985 23.5927 44.8292 23.7964 44.8184 24Z" fill="white"/>
<path d="M44.0981 12.2562C44.0459 12.6453 43.8866 13.0123 43.6381 13.3162L39.2981 17.6562C38.6825 18.278 37.9184 18.7323 37.0781 18.9762C36.5861 19.129 36.0732 19.2032 35.5581 19.1962C35.2054 19.2258 34.8508 19.2258 34.4981 19.1962L31.8381 18.6762L27.2781 23.2562C26.9924 23.5305 26.6141 23.6876 26.2181 23.6962C25.8204 23.6958 25.4391 23.5376 25.1581 23.2562C25.0166 23.1183 24.9041 22.9535 24.8273 22.7714C24.7505 22.5894 24.7109 22.3938 24.7109 22.1962C24.7109 21.9986 24.7505 21.803 24.8273 21.621C24.9041 21.4389 25.0166 21.2741 25.1581 21.1362L29.7381 16.5362L29.1981 13.8962C29.0367 13.0453 29.0778 12.1683 29.3181 11.3362C29.562 10.4959 30.0163 9.73179 30.6381 9.1162L34.9381 4.8162C35.2336 4.54742 35.6027 4.37328 35.9981 4.3162C36.368 4.26124 36.7459 4.32422 37.0781 4.4962C37.4081 4.66406 37.685 4.92023 37.8781 5.2362C38.0734 5.58976 38.157 5.99417 38.1181 6.3962L37.4781 10.9162L41.9781 10.2962C42.3548 10.2592 42.7338 10.3368 43.0657 10.5188C43.3975 10.7008 43.6668 10.9787 43.8381 11.3162C44.001 11.6033 44.0903 11.9262 44.0981 12.2562Z" fill="white"/>
</svg>
