<svg width="36" height="32" viewBox="0 0 36 32" fill="none" xmlns="http://www.w3.org/2000/svg">
<path d="M1.5 27.1059V17.735L9.69828 14.2222L17.8966 17.7376V27.1059L9.69828 30.6161L1.5 27.1059Z" stroke="#C8C8C8" stroke-width="1.46667" stroke-linecap="round" stroke-linejoin="round"/>
<path d="M1.5 17.7169L9.69828 21.2297L17.8966 17.7169M9.69828 4.91602L17.894 8.43141L26.0922 4.9186" stroke="#C8C8C8" stroke-width="1.46667" stroke-linecap="round" stroke-linejoin="round"/>
<path d="M17.8931 17.7168L26.0913 21.2296L34.2896 17.7168" stroke="#C8C8C8" stroke-width="1.46667" stroke-linecap="round" stroke-linejoin="round"/>
<path d="M9.69775 21.2351V30.619M26.0969 21.2351V30.619M17.8934 8.43159V17.8129M9.70293 14.2172V4.8463L17.8986 1.3335L26.0969 4.8463V14.2172L17.8986 17.7301L9.70293 14.2172ZM17.8934 27.1062V17.7352L26.0917 14.2224L34.29 17.7378V27.1062L26.0917 30.6164L17.8934 27.1062Z" stroke="#C8C8C8" stroke-width="1.46667" stroke-linecap="round" stroke-linejoin="round"/>
</svg>
