<svg width="9" height="16" viewBox="0 0 9 16" fill="none" xmlns="http://www.w3.org/2000/svg">
<path fill-rule="evenodd" clip-rule="evenodd" d="M0.852581 1.01599C0.775854 1.08783 0.714036 1.17408 0.670658 1.26982C0.627281 1.36556 0.603194 1.46891 0.599776 1.57396C0.596359 1.67902 0.613676 1.78371 0.650739 1.88207C0.687802 1.98043 0.743886 2.07052 0.815781 2.14719L6.30378 7.99999L0.815781 13.8528C0.670655 14.0077 0.593 14.2139 0.599902 14.426C0.606803 14.6382 0.697694 14.8389 0.852581 14.984C1.00747 15.1291 1.21366 15.2068 1.4258 15.1999C1.63794 15.193 1.83865 15.1021 1.98378 14.9472L7.98378 8.54719C8.12282 8.39891 8.2002 8.20326 8.2002 7.99999C8.2002 7.79672 8.12282 7.60107 7.98378 7.45279L1.98378 1.05279C1.91194 0.976061 1.82569 0.914242 1.72995 0.870864C1.63421 0.827487 1.53086 0.803401 1.42581 0.799984C1.32075 0.796566 1.21606 0.813884 1.1177 0.850947C1.01934 0.88801 0.929254 0.944092 0.852581 1.01599Z" fill="#C8C8C8"/>
</svg>
