<svg width="24" height="22" viewBox="0 0 24 22" fill="none" xmlns="http://www.w3.org/2000/svg">
<path d="M16.8889 9.16667H22.2222C22.6937 9.16667 23.1459 8.97351 23.4793 8.6297C23.8127 8.28588 24 7.81956 24 7.33333V1.83333C24 1.3471 23.8127 0.880787 23.4793 0.536971C23.1459 0.193154 22.6937 0 22.2222 0H16.8889C16.4174 0 15.9652 0.193154 15.6318 0.536971C15.2984 0.880787 15.1111 1.3471 15.1111 1.83333V3.66667H13.3333C12.6261 3.66667 11.9478 3.9564 11.4477 4.47212C10.9476 4.98785 10.6667 5.68732 10.6667 6.41667V10.0833H7.11111V9.16667C7.11111 8.68044 6.92381 8.21412 6.59041 7.8703C6.25701 7.52649 5.80483 7.33333 5.33333 7.33333H1.77778C1.30628 7.33333 0.854097 7.52649 0.520699 7.8703C0.187301 8.21412 0 8.68044 0 9.16667V12.8333C0 13.3196 0.187301 13.7859 0.520699 14.1297C0.854097 14.4735 1.30628 14.6667 1.77778 14.6667H5.33333C5.80483 14.6667 6.25701 14.4735 6.59041 14.1297C6.92381 13.7859 7.11111 13.3196 7.11111 12.8333V11.9167H10.6667V15.5833C10.6667 16.3127 10.9476 17.0122 11.4477 17.5279C11.9478 18.0436 12.6261 18.3333 13.3333 18.3333H15.1111V20.1667C15.1111 20.6529 15.2984 21.1192 15.6318 21.463C15.9652 21.8068 16.4174 22 16.8889 22H22.2222C22.6937 22 23.1459 21.8068 23.4793 21.463C23.8127 21.1192 24 20.6529 24 20.1667V14.6667C24 14.1804 23.8127 13.7141 23.4793 13.3703C23.1459 13.0265 22.6937 12.8333 22.2222 12.8333H16.8889C16.4174 12.8333 15.9652 13.0265 15.6318 13.3703C15.2984 13.7141 15.1111 14.1804 15.1111 14.6667V16.5H13.3333C13.0976 16.5 12.8715 16.4034 12.7048 16.2315C12.5381 16.0596 12.4444 15.8264 12.4444 15.5833V6.41667C12.4444 6.17355 12.5381 5.94039 12.7048 5.76849C12.8715 5.59658 13.0976 5.5 13.3333 5.5H15.1111V7.33333C15.1111 7.81956 15.2984 8.28588 15.6318 8.6297C15.9652 8.97351 16.4174 9.16667 16.8889 9.16667ZM5.33333 12.8333H1.77778V9.16667H5.33333V12.8333ZM16.8889 14.6667H22.2222V20.1667H16.8889V14.6667ZM16.8889 1.83333H22.2222V7.33333H16.8889V1.83333Z" fill="#C8C8C8"/>
</svg>
