<svg width="25" height="24" viewBox="0 0 25 24" fill="none" xmlns="http://www.w3.org/2000/svg">
<path d="M6.00001 18.77C5.85801 18.77 5.73934 18.7217 5.64401 18.625C5.54867 18.5283 5.50067 18.4093 5.50001 18.268C5.49934 18.1267 5.54734 18.008 5.64401 17.912C5.74067 17.816 5.85934 17.7683 6.00001 17.769H7.11601V9.846C7.11601 8.53933 7.52934 7.39033 8.35601 6.399C9.18267 5.40767 10.2307 4.79 11.5 4.546V4C11.5 3.722 11.597 3.486 11.791 3.292C11.985 3.09733 12.2207 3 12.498 3C12.7753 3 13.0117 3.09733 13.207 3.292C13.4023 3.48667 13.5 3.72267 13.5 4V4.546C14.7693 4.78933 15.8173 5.407 16.644 6.399C17.4707 7.391 17.884 8.54 17.884 9.846V17.769H19C19.142 17.769 19.2607 17.817 19.356 17.913C19.452 18.009 19.5 18.128 19.5 18.27C19.5 18.412 19.452 18.5307 19.356 18.626C19.26 18.7213 19.1413 18.769 19 18.769L6.00001 18.77ZM12.497 21.385C12.0517 21.385 11.6717 21.2267 11.357 20.91C11.0423 20.5933 10.885 20.2133 10.885 19.77H14.115C14.115 20.2167 13.9567 20.5973 13.64 20.912C13.3227 21.2267 12.9417 21.385 12.497 21.385ZM12.5 12.808C12.642 12.808 12.7607 12.76 12.856 12.664C12.9513 12.568 12.999 12.4493 12.999 12.308V8.5C12.999 8.358 12.951 8.23933 12.855 8.144C12.759 8.04867 12.6403 8.00067 12.499 8C12.3577 7.99933 12.239 8.04733 12.143 8.144C12.047 8.24067 11.9993 8.35933 12 8.5V12.308C12 12.4493 12.048 12.568 12.144 12.664C12.24 12.76 12.359 12.808 12.501 12.808M12.5 15.616C12.6747 15.616 12.821 15.557 12.939 15.439C13.057 15.321 13.1157 15.1747 13.115 15C13.1143 14.8253 13.0553 14.6793 12.938 14.562C12.8207 14.4447 12.6747 14.3857 12.5 14.385C12.3253 14.3843 12.1793 14.4433 12.062 14.562C11.9447 14.6807 11.8857 14.8267 11.885 15C11.8843 15.1733 11.9433 15.3197 12.062 15.439C12.1807 15.5583 12.3267 15.6173 12.5 15.616Z" fill="#048B94"/>
</svg>
