<svg width="32" height="32" viewBox="0 0 32 32" fill="none" xmlns="http://www.w3.org/2000/svg">
<path d="M15.8332 30.6668C18.734 30.6668 21.5696 29.8066 23.9815 28.1951C26.3934 26.5835 28.2733 24.2928 29.3834 21.6129C30.4935 18.9329 30.7839 15.9839 30.218 13.1388C29.6521 10.2938 28.2552 7.68044 26.2041 5.62927C24.1529 3.5781 21.5395 2.18123 18.6945 1.61532C15.8494 1.0494 12.9005 1.33985 10.2205 2.44994C7.5405 3.56002 5.24988 5.43988 3.63828 7.8518C2.02669 10.2637 1.1665 13.0994 1.1665 16.0002C1.1665 18.4251 1.75317 20.7114 2.79613 22.7256L1.1665 30.6668L9.10769 29.0372C11.1219 30.0802 13.4099 30.6668 15.8332 30.6668Z" stroke="#C8C8C8" stroke-width="1.46667" stroke-linecap="round" stroke-linejoin="round"/>
</svg>
