<svg width="18" height="18" viewBox="0 0 18 18" fill="none" xmlns="http://www.w3.org/2000/svg">
<path d="M7.21806 0.833313C5.95526 0.833313 4.72083 1.20778 3.67085 1.90935C2.62088 2.61092 1.80252 3.60809 1.31927 4.77476C0.836018 5.94143 0.709578 7.2252 0.955937 8.46373C1.2023 9.70226 1.81039 10.8399 2.70332 11.7329C3.59625 12.6258 4.73391 13.2339 5.97244 13.4802C7.21097 13.7266 8.49475 13.6002 9.66142 13.1169C10.8281 12.6337 11.8253 11.8153 12.5268 10.7653C13.2284 9.71535 13.6029 8.48091 13.6029 7.21811C13.6028 5.52479 12.93 3.90086 11.7327 2.7035C10.5353 1.50614 8.91138 0.833421 7.21806 0.833313Z" stroke="white" stroke-miterlimit="10"/>
<path d="M7.21806 0.833313C5.95526 0.833313 4.72083 1.20778 3.67085 1.90935C2.62088 2.61092 1.80252 3.60809 1.31927 4.77476C0.836018 5.94143 0.709578 7.2252 0.955937 8.46373C1.2023 9.70226 1.81039 10.8399 2.70332 11.7329C3.59625 12.6258 4.73391 13.2339 5.97244 13.4802C7.21097 13.7266 8.49475 13.6002 9.66142 13.1169C10.8281 12.6337 11.8253 11.8153 12.5268 10.7653C13.2284 9.71535 13.6029 8.48091 13.6029 7.21811C13.6028 5.52479 12.93 3.90086 11.7327 2.7035C10.5353 1.50614 8.91138 0.833421 7.21806 0.833313Z" stroke="white" stroke-width="1.2" stroke-miterlimit="10"/>
<path d="M11.7222 11.7222L17.1666 17.1667" stroke="white" stroke-width="1.2" stroke-miterlimit="10" stroke-linecap="round"/>
</svg>
