<svg width="10" height="21" viewBox="0 0 10 21" fill="none" xmlns="http://www.w3.org/2000/svg">
  <g clip-path="url(#clip0_1513_2546)">
    <path d="M-0.929367 1.66789C-0.585623 0.851427 0.585134 0.851428 0.928878 1.66789L2.95764 6.48678C3.10264 6.83098 3.43031 7.06615 3.80642 7.09594L9.07242 7.51302C9.96464 7.58369 10.3264 8.68368 9.64664 9.25894L5.63453 12.6542C5.34798 12.8968 5.22276 13.2773 5.31031 13.6399L6.53609 18.7165C6.74376 19.5767 5.79664 20.2565 5.03275 19.7957L0.524289 17.0751C0.202255 16.8808 -0.202744 16.8808 -0.524767 17.0751L-5.03326 19.7957C-5.79713 20.2565 -6.74429 19.5767 -6.53661 18.7165L-5.31082 13.6399C-5.22327 13.2773 -5.34842 12.8968 -5.63499 12.6542L-9.64718 9.25894C-10.327 8.68368 -9.96518 7.58369 -9.07295 7.51302L-3.80689 7.09594C-3.43074 7.06615 -3.10309 6.83098 -2.95818 6.48678L-0.929367 1.66789Z" fill="#818181"/>
  </g>
  <defs>
    <clipPath id="clip0_1513_2546">
      <rect width="10" height="20" fill="white" transform="translate(0 0.241211)"/>
    </clipPath>
  </defs>
</svg>
