<svg width="16" height="17" viewBox="0 0 16 17" fill="none" xmlns="http://www.w3.org/2000/svg">
<path d="M7.21265 9.02503L6.12515 7.95628C5.98765 7.81878 5.8159 7.75003 5.6099 7.75003C5.4039 7.75003 5.22565 7.82503 5.07515 7.97503C4.93765 8.11253 4.8689 8.28753 4.8689 8.50003C4.8689 8.71253 4.93765 8.88753 5.07515 9.02503L6.68765 10.6375C6.83765 10.7875 7.01265 10.8625 7.21265 10.8625C7.41265 10.8625 7.58765 10.7875 7.73765 10.6375L10.9251 7.45003C11.0751 7.30003 11.1469 7.12503 11.1404 6.92503C11.1339 6.72503 11.0621 6.55003 10.9251 6.40003C10.7751 6.25003 10.5971 6.17203 10.3911 6.16603C10.1851 6.16003 10.0069 6.23178 9.8564 6.38128L7.21265 9.02503ZM5.11265 15.8125L4.02515 13.975L1.96265 13.525C1.77515 13.4875 1.62515 13.3908 1.51265 13.2348C1.40015 13.0788 1.3564 12.9068 1.3814 12.7188L1.58765 10.6L0.181396 8.98753C0.0563965 8.85003 -0.00610352 8.68753 -0.00610352 8.50003C-0.00610352 8.31253 0.0563965 8.15003 0.181396 8.01253L1.58765 6.40003L1.3814 4.28128C1.3564 4.09378 1.40015 3.92178 1.51265 3.76528C1.62515 3.60878 1.77515 3.51203 1.96265 3.47503L4.02515 3.02503L5.11265 1.18753C5.21265 1.02503 5.35015 0.915529 5.52515 0.859029C5.70015 0.802529 5.87515 0.812029 6.05015 0.887529L8.00015 1.71253L9.95015 0.887529C10.1251 0.812529 10.3001 0.803029 10.4751 0.859029C10.6501 0.915029 10.7876 1.02453 10.8876 1.18753L11.9751 3.02503L14.0376 3.47503C14.2251 3.51253 14.3751 3.60953 14.4876 3.76603C14.6001 3.92253 14.6439 4.09428 14.6189 4.28128L14.4126 6.40003L15.8189 8.01253C15.9439 8.15003 16.0064 8.31253 16.0064 8.50003C16.0064 8.68753 15.9439 8.85003 15.8189 8.98753L14.4126 10.6L14.6189 12.7188C14.6439 12.9063 14.6001 13.0783 14.4876 13.2348C14.3751 13.3913 14.2251 13.488 14.0376 13.525L11.9751 13.975L10.8876 15.8125C10.7876 15.975 10.6501 16.0845 10.4751 16.141C10.3001 16.1975 10.1251 16.188 9.95015 16.1125L8.00015 15.2875L6.05015 16.1125C5.87515 16.1875 5.70015 16.197 5.52515 16.141C5.35015 16.085 5.21265 15.9755 5.11265 15.8125Z" fill="white"/>
</svg>
