<svg width="15" height="15" viewBox="0 0 15 15" fill="none" xmlns="http://www.w3.org/2000/svg">
<path d="M1.26739 13.8118L5.81957 9.25958M11.552 7.23528L10.1893 11.3232C10.1676 11.3888 10.1304 11.4481 10.0808 11.4961C10.0312 11.5442 9.97081 11.5796 9.90465 11.5993L1.55137 14.0821C1.47611 14.1045 1.39617 14.1058 1.32023 14.0858C1.2443 14.0659 1.17529 14.0255 1.12071 13.9691C1.06612 13.9127 1.02806 13.8424 1.01067 13.7658C0.993273 13.6893 0.997209 13.6094 1.02205 13.5349L3.73447 5.3991C3.75391 5.34069 3.78569 5.28714 3.82765 5.24209C3.86961 5.19704 3.92078 5.16155 3.97767 5.13802L7.83099 3.55148C7.90933 3.51913 7.9955 3.51069 8.07862 3.52724C8.16175 3.54379 8.23811 3.58458 8.29809 3.64447L11.4483 6.79609C11.5046 6.85244 11.5442 6.92338 11.5625 7.00095C11.5808 7.07852 11.5772 7.15966 11.552 7.23528Z" stroke="#C8C8C8" stroke-linecap="round" stroke-linejoin="round"/>
<path d="M11.6362 6.98354L13.659 4.95996C13.9272 4.69168 14.0779 4.32787 14.0779 3.94852C14.0779 3.56918 13.9272 3.20536 13.659 2.93709L12.1426 1.41922C12.0098 1.28631 11.852 1.18088 11.6784 1.10895C11.5048 1.03702 11.3187 1 11.1308 1C10.9429 1 10.7568 1.03702 10.5832 1.10895C10.4096 1.18088 10.2519 1.28631 10.119 1.41922L8.09615 3.4428M7.3365 7.74176C7.23684 7.64214 7.11853 7.56313 6.98833 7.50924C6.85813 7.45534 6.71859 7.42762 6.57767 7.42765C6.43676 7.42769 6.29723 7.45547 6.16706 7.50943C6.03688 7.56339 5.91861 7.64245 5.81899 7.74212C5.71937 7.84178 5.64036 7.96009 5.58647 8.09029C5.53257 8.22049 5.50485 8.36004 5.50488 8.50095C5.50492 8.64186 5.5327 8.78139 5.58666 8.91156C5.64062 9.04174 5.71968 9.16001 5.81935 9.25963C6.02063 9.46082 6.29359 9.57381 6.57818 9.57374C6.86277 9.57367 7.13567 9.46055 7.33686 9.25927C7.53805 9.05799 7.65103 8.78503 7.65097 8.50044C7.6509 8.21585 7.53778 7.94295 7.3365 7.74176Z" stroke="#C8C8C8" stroke-linecap="round" stroke-linejoin="round"/>
</svg>
