<svg width="30" height="28" viewBox="0 0 30 28" fill="none" xmlns="http://www.w3.org/2000/svg">
<path fill-rule="evenodd" clip-rule="evenodd" d="M23.3811 3.30948H6.61921C5.78567 3.30948 4.98628 3.6406 4.39687 4.23C3.80748 4.81941 3.47635 5.6188 3.47635 6.45234V14.8333C3.47635 15.6668 3.80748 16.4662 4.39687 17.0556C4.98628 17.645 5.78567 17.9762 6.61921 17.9762H23.3811C24.2147 17.9762 25.0141 17.645 25.6035 17.0556C26.1929 16.4662 26.524 15.6668 26.524 14.8333V6.45234C26.524 5.6188 26.1929 4.81941 25.6035 4.23C25.0141 3.6406 24.2147 3.30948 23.3811 3.30948ZM6.61921 0.166626C4.95214 0.166626 3.35334 0.828869 2.17454 2.00767C0.995739 3.18647 0.333496 4.78527 0.333496 6.45234V14.8333C0.333496 16.5004 0.995739 18.0992 2.17454 19.278C3.35334 20.4568 4.95214 21.119 6.61921 21.119H13.4287V24.2619H8.19064C7.77387 24.2619 7.37417 24.4274 7.07947 24.7221C6.78477 25.0168 6.61921 25.4165 6.61921 25.8333C6.61921 26.2501 6.78477 26.6498 7.07947 26.9445C7.37417 27.2392 7.77387 27.4047 8.19064 27.4047H21.8097C22.2265 27.4047 22.6262 27.2392 22.9209 26.9445C23.2156 26.6498 23.3811 26.2501 23.3811 25.8333C23.3811 25.4165 23.2156 25.0168 22.9209 24.7221C22.6262 24.4274 22.2265 24.2619 21.8097 24.2619H16.5716V21.119H23.3811C25.0482 21.119 26.647 20.4568 27.8258 19.278C29.0046 18.0992 29.6668 16.5004 29.6668 14.8333V6.45234C29.6668 4.78527 29.0046 3.18647 27.8258 2.00767C26.647 0.828869 25.0482 0.166626 23.3811 0.166626H6.61921Z" fill="#C8C8C8"/>
</svg>
