<svg width="34" height="34" viewBox="0 0 34 34" fill="none" xmlns="http://www.w3.org/2000/svg">
<path d="M8.28741 8.34974L5.74213 5.78195M21.8605 8.34974L24.4058 5.78195M5.7404 24.6205L8.28568 22.051M15.0731 4.9266V1.5M4.89197 15.2012H1.5M25.5243 25.4568L32.1282 22.8492C32.2875 22.7854 32.4241 22.6754 32.5203 22.5332C32.6165 22.3911 32.6679 22.2234 32.6679 22.0518C32.6679 21.8802 32.6165 21.7125 32.5203 21.5704C32.4241 21.4283 32.2875 21.3182 32.1282 21.2545L16.2591 14.9952C16.1047 14.9354 15.9361 14.9219 15.7741 14.9565C15.6121 14.991 15.4636 15.072 15.347 15.1896C15.2303 15.3072 15.1504 15.4563 15.1172 15.6186C15.0839 15.7808 15.0987 15.9493 15.1597 16.1033L21.3618 32.1212C21.6423 32.8485 22.6604 32.8485 22.9409 32.1212L25.5243 25.4568Z" stroke="#C8C8C8" stroke-width="2.59722" stroke-linecap="round" stroke-linejoin="round"/>
</svg>
