<svg width="30" height="26" viewBox="0 0 30 26" fill="none" xmlns="http://www.w3.org/2000/svg">
<path d="M9.66622 0.166626C7.19103 0.166626 4.81721 1.12715 3.06699 2.8369C1.31676 4.54665 0.333496 6.86557 0.333496 9.28352C0.333496 11.7015 1.31676 14.0204 3.06699 15.7301C4.81721 17.4399 7.19103 18.4004 9.66622 18.4004H11.0928C10.9663 17.5365 10.9663 16.6595 11.0928 15.7956H9.66622C7.89822 15.7956 6.20264 15.1095 4.95248 13.8882C3.70232 12.667 2.99999 11.0106 2.99999 9.28352C2.99999 7.55641 3.70232 5.90004 4.95248 4.67879C6.20264 3.45754 7.89822 2.77145 9.66622 2.77145H20.3322C21.3208 2.77126 22.2971 2.98587 23.1903 3.39975C24.0836 3.81362 24.8714 4.4164 25.4968 5.16441C26.1221 5.91243 26.5693 6.78695 26.806 7.72463C27.0426 8.66232 27.0628 9.63968 26.8651 10.5859C27.6506 11.3383 28.2942 12.2201 28.7663 13.1908C29.4411 11.801 29.745 10.267 29.6497 8.73167C29.5544 7.19631 29.063 5.70946 28.2212 4.40954C27.3794 3.10962 26.2146 2.0389 24.8352 1.29704C23.4559 0.555179 21.9068 0.166309 20.3322 0.166626H9.66622ZM20.3322 13.1908C19.2714 13.1908 18.254 13.6024 17.5039 14.3352C16.7538 15.0679 16.3324 16.0617 16.3324 17.098C16.3324 18.1343 16.7538 19.1281 17.5039 19.8608C18.254 20.5936 19.2714 21.0052 20.3322 21.0052C21.393 21.0052 22.4103 20.5936 23.1604 19.8608C23.9105 19.1281 24.3319 18.1343 24.3319 17.098C24.3319 16.0617 23.9105 15.0679 23.1604 14.3352C22.4103 13.6024 21.393 13.1908 20.3322 13.1908ZM13.666 17.098C13.6662 16.0827 13.9095 15.0814 14.3764 14.1743C14.8433 13.2672 15.5209 12.4792 16.355 11.8735C17.1891 11.2677 18.1567 10.8609 19.1805 10.6854C20.2042 10.51 21.2558 10.5709 22.2512 10.8632C23.2465 11.1554 24.1582 11.671 24.9132 12.3688C25.6683 13.0665 26.2459 13.9271 26.5999 14.8818C26.9539 15.8364 27.0744 16.8587 26.952 17.867C26.8295 18.8752 26.4674 19.8416 25.8945 20.6888L29.2743 23.9917L27.3891 25.8333L24.0079 22.5317C23.0032 23.1804 21.8372 23.5512 20.634 23.6044C19.4308 23.6577 18.2353 23.3915 17.1746 22.8342C16.1138 22.2769 15.2275 21.4493 14.6097 20.4392C13.9919 19.4292 13.6658 18.2746 13.666 17.098Z" fill="#C8C8C8"/>
</svg>
