<svg width="30" height="29" viewBox="0 0 30 29" fill="none" xmlns="http://www.w3.org/2000/svg">
<path d="M28 27L19.3333 18.6667M2 11.7222C2 12.999 2.26153 14.2632 2.76966 15.4428C3.27779 16.6223 4.02257 17.6941 4.96148 18.5969C5.90038 19.4997 7.01502 20.2158 8.24176 20.7044C9.46849 21.193 10.7833 21.4444 12.1111 21.4444C13.4389 21.4444 14.7537 21.193 15.9805 20.7044C17.2072 20.2158 18.3218 19.4997 19.2607 18.5969C20.1996 17.6941 20.9444 16.6223 21.4526 15.4428C21.9607 14.2632 22.2222 12.999 22.2222 11.7222C22.2222 10.4455 21.9607 9.18124 21.4526 8.00169C20.9444 6.82213 20.1996 5.75036 19.2607 4.84757C18.3218 3.94478 17.2072 3.22865 15.9805 2.74006C14.7537 2.25147 13.4389 2 12.1111 2C10.7833 2 9.46849 2.25147 8.24176 2.74006C7.01502 3.22865 5.90038 3.94478 4.96148 4.84757C4.02257 5.75036 3.27779 6.82213 2.76966 8.00169C2.26153 9.18124 2 10.4455 2 11.7222Z" stroke="#C8C8C8" stroke-width="2.1" stroke-linecap="round" stroke-linejoin="round"/>
</svg>
