<svg width="24" height="24" viewBox="0 0 24 24" fill="none" xmlns="http://www.w3.org/2000/svg">
<path d="M11.6429 17C11.4724 17 11.3088 17.0527 11.1883 17.1464C11.0677 17.2402 11 17.3674 11 17.5C11 17.6326 11.0677 17.7598 11.1883 17.8536C11.3088 17.9473 11.4724 18 11.6429 18H13.3571C13.5276 18 13.6912 17.9473 13.8117 17.8536C13.9323 17.7598 14 17.6326 14 17.5C14 17.3674 13.9323 17.2402 13.8117 17.1464C13.6912 17.0527 13.5276 17 13.3571 17H11.6429Z" fill="#C8C8C8"/>
<path fill-rule="evenodd" clip-rule="evenodd" d="M8.16 2C7.58713 2 7.03773 2.2252 6.63265 2.62606C6.22757 3.02692 6 3.5706 6 4.1375V18.8625C6 19.4294 6.22757 19.9731 6.63265 20.3739C7.03773 20.7748 7.58713 21 8.16 21H15.84C16.4129 21 16.9623 20.7748 17.3674 20.3739C17.7724 19.9731 18 19.4294 18 18.8625V4.1375C18 3.5706 17.7724 3.02692 17.3674 2.62606C16.9623 2.2252 16.4129 2 15.84 2H8.16ZM7.44 4.1375C7.44 3.94853 7.51586 3.76731 7.65088 3.63369C7.78591 3.50007 7.96904 3.425 8.16 3.425H15.84C16.031 3.425 16.2141 3.50007 16.3491 3.63369C16.4841 3.76731 16.56 3.94853 16.56 4.1375V18.8625C16.56 19.0515 16.4841 19.2327 16.3491 19.3663C16.2141 19.4999 16.031 19.575 15.84 19.575H8.16C7.96904 19.575 7.78591 19.4999 7.65088 19.3663C7.51586 19.2327 7.44 19.0515 7.44 18.8625V4.1375Z" fill="#C8C8C8"/>
</svg>
