<svg width="30" height="30" viewBox="0 0 30 30" fill="none" xmlns="http://www.w3.org/2000/svg">
<path d="M17.3813 6.10489C18.5729 7.07769 19.7142 8.11063 20.8005 9.1997C21.889 10.2862 22.9215 11.4274 23.8939 12.6189C24.6371 11.4988 25.2877 10.3199 25.8391 9.0939C26.4795 7.63678 26.7996 6.39406 26.8406 5.42923C26.8815 4.46722 26.6431 3.93543 26.3525 3.64626C26.0633 3.35568 25.5315 3.11871 24.5695 3.15961C23.6061 3.19911 22.3634 3.51931 20.9049 4.16112C19.6797 4.71263 18.5013 5.36269 17.3813 6.10489ZM15.0003 4.30923C16.6408 3.16667 18.2531 2.24556 19.768 1.57836C21.4155 0.854735 23.0151 0.40053 24.4511 0.339876C25.8898 0.280631 27.3117 0.614938 28.3484 1.65171C29.3852 2.68848 29.7195 4.11034 29.6603 5.54772C29.5982 6.98368 29.1454 8.58469 28.4204 10.2308C27.7546 11.7458 26.8321 13.3581 25.6909 14.9986C26.8335 16.6405 27.7546 18.2528 28.4218 19.7691C29.1454 21.4153 29.5996 23.0163 29.6603 24.4522C29.7195 25.8882 29.3852 27.3115 28.3484 28.3482C27.3117 29.385 25.8898 29.7193 24.4525 29.6601C23.0165 29.5994 21.4155 29.1452 19.7694 28.4202C18.2545 27.7544 16.6408 26.8319 15.0003 25.6893C13.3598 26.8319 11.7461 27.7544 10.2312 28.4202C8.58506 29.1452 6.98407 29.598 5.54812 29.6587C4.11076 29.7193 2.6875 29.385 1.65215 28.3468C0.615386 27.3115 0.279672 25.8882 0.340327 24.4508C0.400981 23.0163 0.855181 21.4153 1.5788 19.7677C2.246 18.2528 3.1685 16.6405 4.30965 15C3.1685 13.3581 2.246 11.7458 1.58021 10.2308C0.855182 8.58469 0.402391 6.98368 0.341737 5.54772C0.281083 4.11034 0.615386 2.68848 1.65356 1.65171C2.68891 0.614938 4.11217 0.280631 5.54953 0.339876C6.98407 0.40053 8.58506 0.854735 10.2326 1.57836C11.7461 2.24556 13.3598 3.16808 15.0003 4.30923ZM6.1067 12.6175C7.0787 11.4265 8.11069 10.2858 9.19866 9.1997C10.2856 8.11068 11.4273 7.07774 12.6193 6.10489C11.4995 5.36224 10.3211 4.71217 9.09568 4.16112C7.63716 3.51931 6.39446 3.19911 5.43104 3.15961C4.46904 3.11871 3.93585 3.3571 3.64668 3.64626C3.35752 3.93543 3.11913 4.46722 3.16004 5.42923C3.20095 6.39406 3.52114 7.63678 4.16154 9.0939C4.71298 10.3199 5.36352 11.4974 6.1067 12.6175ZM7.8163 15C8.86431 16.3362 9.99248 17.6076 11.1946 18.8071C12.3937 20.0092 13.6646 21.1373 15.0003 22.1854C16.3361 21.1374 17.607 20.0092 18.806 18.8071C20.0081 17.6076 21.1363 16.3362 22.1843 15C21.1362 13.6647 20.008 12.3942 18.806 11.1957C17.607 9.99305 16.3361 8.8644 15.0003 7.81592C13.6641 8.86395 12.3927 9.99213 11.1932 11.1942C9.99116 12.3928 8.86299 13.6633 7.81489 14.9986M6.10529 17.3796C5.36153 18.5002 4.71051 19.6796 4.15872 20.9061C3.51832 22.3632 3.19954 23.6059 3.15722 24.5693C3.11772 25.5313 3.3547 26.0645 3.64527 26.3537C3.93444 26.6429 4.46622 26.8813 5.42822 26.8403C6.39164 26.7994 7.63575 26.4792 9.09286 25.8388C10.3193 25.287 11.4987 24.636 12.6193 23.8922C11.4273 22.9203 10.2856 21.8883 9.19866 20.8003C8.11013 19.7133 7.07767 18.5716 6.10529 17.3796ZM17.3799 23.8937C18.5001 24.6368 19.679 25.2874 20.9049 25.8388C22.362 26.4792 23.6061 26.7994 24.5695 26.8403C25.5315 26.8813 26.0633 26.6429 26.3525 26.3537C26.6417 26.0631 26.88 25.5313 26.8391 24.5693C26.7996 23.6059 26.4794 22.3632 25.8376 20.9046C25.2862 19.6787 24.6357 18.4998 23.8925 17.3796C22.9201 18.5716 21.8876 19.7133 20.7991 20.8003C19.7126 21.8888 18.5714 22.9213 17.3799 23.8937ZM13.8168 13.5908H16.6436V16.4176H13.8168V13.5908Z" fill="#C8C8C8"/>
</svg>
